<svg id="Layer_1" data-name="Layer 1" xmlns="http://www.w3.org/2000/svg" width="443.98" height="371.27" viewBox="0 0 443.98 371.27">
  <defs>
    <style>
      .cls-1 {
        fill: none;
        stroke-width: 10px;
      }

      .cls-1, .cls-2, .cls-3 {
        stroke: #1c3b4d;
      }

      .cls-1, .cls-2 {
        stroke-miterlimit: 10;
      }

      .cls-2, .cls-3 {
        fill: #1c3b4d;
      }
    </style>
  </defs>
  <g>
    <g id="Hand_and_box" data-name="Hand and box">
      <path id="Box" class="cls-1" d="M319,224.36H462.4a25.75,25.75,0,0,0,26-25.51V112.23a25.74,25.74,0,0,0-26-25.5h-382a25.74,25.74,0,0,0-26,25.5v86.62a25.74,25.74,0,0,0,26,25.51H280.3" transform="translate(-49.4 -81.73)"/>
      <g id="Hand">
        <path class="cls-1" d="M352.21,317.63V258.18a5.83,5.83,0,0,1,3.13-5.16c8.12-4.27,29.68-11.06,33.79,18.47" transform="translate(-49.4 -81.73)"/>
        <path class="cls-1" d="M319,317.63V254.26a5.79,5.79,0,0,1,2.68-4.9c6-3.78,20.71-6.6,30.51,9.5" transform="translate(-49.4 -81.73)"/>
        <path class="cls-1" d="M319,255.48V188.09a17.35,17.35,0,0,0-8.37-15c-9.14-5.38-17.81-2.74-23.82.78a16.68,16.68,0,0,0-8.18,14.38V322a5.82,5.82,0,0,1-10.18,3.85l-23.73-26.9a18.58,18.58,0,0,0-20.88-5.09c-7.08,2.91-13.83,9.41-12.49,23.79,2.12,22.55,56.28,84.42,79.4,109.91,6.86,7.55,15.45,16.9,25.47,18.81,17.09,3.27,42.74.78,70.63.11a35.63,35.63,0,0,0,34.42-35.35V282.74c0-15.22-17.47-24.21-29.58-15l-.51.41a5.84,5.84,0,0,0-2.21,4.56V323" transform="translate(-49.4 -81.73)"/>
      </g>
    </g>
    <g>
      <path class="cls-2" d="M111.26,147.51H79.66l-6.23,13.58H61.33l28.44-58.68h11.56l28.53,58.68H117.58ZM107.38,139,95.46,113.3,83.63,139Z" transform="translate(-49.4 -81.73)"/>
      <path class="cls-2" d="M179.52,116.32l-20.68,44.77H147.2l-20.68-44.77h11.74l15,33.2,15.44-33.2Z" transform="translate(-49.4 -81.73)"/>
      <path class="cls-2" d="M219.74,120.56q5.64,4.72,5.65,14.29v26.24H214.73v-5.45a13,13,0,0,1-5.91,4.49,24.82,24.82,0,0,1-9.26,1.55,24.3,24.3,0,0,1-9.48-1.72,14.45,14.45,0,0,1-6.27-4.78,12,12,0,0,1,2.62-16.6q4.83-3.65,15.21-3.65H214.1v-.67a8.87,8.87,0,0,0-3-7.21q-3-2.51-9-2.51a27.84,27.84,0,0,0-8,1.17,20.5,20.5,0,0,0-6.64,3.27L183,121.35a28.31,28.31,0,0,1,9.12-4.1,43.49,43.49,0,0,1,11.29-1.43Q214.1,115.82,219.74,120.56Zm-10.29,31.69a10,10,0,0,0,4.65-5.16v-5.2H202.45q-9.75,0-9.75,6a5.23,5.23,0,0,0,2.44,4.53,11.79,11.79,0,0,0,6.77,1.68A15.48,15.48,0,0,0,209.45,152.25Z" transform="translate(-49.4 -81.73)"/>
      <path class="cls-2" d="M240.37,107.14a5.89,5.89,0,0,1,0-9,7.59,7.59,0,0,1,5.15-1.8,7.79,7.79,0,0,1,5.15,1.72,5.38,5.38,0,0,1,2.07,4.32,6.08,6.08,0,0,1-2,4.65,7.3,7.3,0,0,1-5.19,1.89A7.55,7.55,0,0,1,240.37,107.14Zm-.54,9.18h11.29v44.77H239.83Z" transform="translate(-49.4 -81.73)"/>
      <path class="cls-2" d="M265.92,98.89h11.29v62.2H265.92Z" transform="translate(-49.4 -81.73)"/>
      <path class="cls-2" d="M326.73,120.56q5.64,4.72,5.65,14.29v26.24H321.72v-5.45a13,13,0,0,1-5.91,4.49,24.82,24.82,0,0,1-9.26,1.55,24.3,24.3,0,0,1-9.48-1.72,14.45,14.45,0,0,1-6.27-4.78,12,12,0,0,1,2.62-16.6q4.83-3.65,15.21-3.65h12.46v-.67a8.84,8.84,0,0,0-3-7.21c-2-1.67-5-2.51-9-2.51a27.84,27.84,0,0,0-8,1.17,20.5,20.5,0,0,0-6.64,3.27L290,121.35a28.31,28.31,0,0,1,9.12-4.1,43.49,43.49,0,0,1,11.29-1.43Q321.09,115.82,326.73,120.56Zm-10.29,31.69a10,10,0,0,0,4.65-5.16v-5.2H309.44q-9.75,0-9.75,6a5.23,5.23,0,0,0,2.44,4.53,11.79,11.79,0,0,0,6.77,1.68A15.48,15.48,0,0,0,316.44,152.25Z" transform="translate(-49.4 -81.73)"/>
      <path class="cls-2" d="M386.14,118.67a21.45,21.45,0,0,1,8.72,8,22.66,22.66,0,0,1,3.16,12,22.93,22.93,0,0,1-3.16,12,21.41,21.41,0,0,1-8.72,8.09,27.17,27.17,0,0,1-12.59,2.85,25,25,0,0,1-9.08-1.6,17.27,17.27,0,0,1-6.9-4.78v5.79H346.82V98.89h11.29v22.88a19,19,0,0,1,6.81-4.44,23.81,23.81,0,0,1,8.63-1.51A27.17,27.17,0,0,1,386.14,118.67Zm-3.61,30.18a14.81,14.81,0,0,0,0-20.29,14.19,14.19,0,0,0-10.25-3.85,15.46,15.46,0,0,0-7.31,1.71,13,13,0,0,0-5.15,4.91,15.33,15.33,0,0,0,0,14.75A12.94,12.94,0,0,0,365,151a15.46,15.46,0,0,0,7.31,1.72A14.2,14.2,0,0,0,382.53,148.85Z" transform="translate(-49.4 -81.73)"/>
      <path class="cls-2" d="M408.76,98.89H420v62.2H408.76Z" transform="translate(-49.4 -81.73)"/>
      <path class="cls-2" d="M480,142.06H442.17a12.07,12.07,0,0,0,5.19,7.84,17.93,17.93,0,0,0,10.43,2.89,18.31,18.31,0,0,0,13.09-4.86l6.05,6.45a20.39,20.39,0,0,1-8.22,5.45,32,32,0,0,1-11.2,1.85,31.64,31.64,0,0,1-14-2.94,22.17,22.17,0,0,1-9.35-8.17,21.87,21.87,0,0,1-3.29-11.86,21.89,21.89,0,0,1,12.1-20,27.6,27.6,0,0,1,12.82-2.93,26.82,26.82,0,0,1,12.59,2.89,21.26,21.26,0,0,1,8.67,8.13A23.27,23.27,0,0,1,480.18,139C480.18,139.68,480.12,140.72,480,142.06Zm-33.37-14.88a12.28,12.28,0,0,0-4.55,7.92h27.35a12.08,12.08,0,0,0-4.42-7.88,14.12,14.12,0,0,0-9.21-3A14.32,14.32,0,0,0,446.63,127.18Z" transform="translate(-49.4 -81.73)"/>
    </g>
    <g>
      <path class="cls-3" d="M157.25,170v41.68h-3V191.87H126.34v19.82h-3V170h3v19.18h27.87V170Z" transform="translate(-49.4 -81.73)"/>
      <path class="cls-3" d="M171.77,170h3v41.68h-3Z" transform="translate(-49.4 -81.73)"/>
      <path class="cls-3" d="M218.27,211.69l-9.94-13.93a30.22,30.22,0,0,1-4.05.3H192.37v13.63h-3V170h14.94q7.86,0,12.33,3.72t4.46,10.34a12.7,12.7,0,0,1-9.76,13l10.42,14.59Zm-14-16.31q6.67,0,10.18-2.95t3.52-8.36q0-5.43-3.52-8.37t-10.18-2.95H192.37v22.63Z" transform="translate(-49.4 -81.73)"/>
      <path class="cls-3" d="M261,209v2.74H232.21V170h27.86v2.74H235.24v16.44h22.21v2.68H235.24V209Z" transform="translate(-49.4 -81.73)"/>
    </g>
    <g>
      <path class="cls-2" d="M378.24,170v41.68H374V178.35l-16.37,28h-2.08l-16.38-27.86v33.16H335V170h3.64l18.1,30.91L374.61,170Z" transform="translate(-49.4 -81.73)"/>
      <path class="cls-2" d="M421.29,207.88v3.81H391.81V170h28.58v3.81H396.22v14.83h21.55v3.75H396.22v15.48Z" transform="translate(-49.4 -81.73)"/>
    </g>
  </g>
</svg>
