<svg width="228" height="190" viewBox="0 0 228 190" fill="none" xmlns="http://www.w3.org/2000/svg">
<g id="Hand and box 1">
<path id="Box 1" d="M138.271 73.3187H211.412C218.701 73.3187 224.664 67.5082 224.664 60.3215V16.1821C224.664 8.9954 218.752 3.18491 211.412 3.18491H16.7096C9.37 3.18491 3.45757 8.9954 3.45757 16.1821V60.3215C3.45757 67.5082 9.37 73.3187 16.7096 73.3187H118.597" stroke="#1C3B4E" stroke-width="5.09693" stroke-miterlimit="10"/>
<g id="Hand 1">
<path id="Vector" d="M155.244 120.873V90.5463C155.244 89.425 155.856 88.4056 156.824 87.8959C160.953 85.7042 171.962 82.2383 174.052 97.3252" stroke="#1C3B4E" stroke-width="5.09693" stroke-miterlimit="10"/>
<path id="Vector_2" d="M138.322 120.873V88.5584C138.322 87.5391 138.832 86.6216 139.698 86.061C142.757 84.1241 150.249 82.697 155.244 90.903" stroke="#1C3B4E" stroke-width="5.09693" stroke-miterlimit="10"/>
<path id="Vector_3" d="M138.322 89.2211V54.8678C138.322 51.7587 136.742 48.8025 134.041 47.2224C129.403 44.4701 124.968 45.8463 121.91 47.6302C119.311 49.1593 117.731 51.9626 117.731 54.9698V123.116C117.731 125.868 114.367 127.142 112.532 125.053L100.452 111.342C97.8018 108.335 93.5203 107.213 89.7996 108.742C86.1807 110.22 82.7658 113.533 83.4284 120.873C84.4988 132.392 112.124 163.891 123.898 176.888C127.415 180.762 131.747 185.502 136.895 186.471C145.611 188.153 158.659 186.878 172.88 186.522C182.513 186.267 190.413 178.163 190.413 168.529V103.085C190.413 95.3374 181.493 90.7502 175.326 95.4394C175.224 95.4903 175.173 95.5923 175.071 95.6432C174.358 96.2039 173.95 97.0704 173.95 97.9878V123.625" stroke="#1C3B4E" stroke-width="5.09693" stroke-miterlimit="10"/>
</g>
</g>
</svg>
